<svg width="400" height="173" viewBox="0 0 400 173" fill="none" xmlns="http://www.w3.org/2000/svg">
<ellipse cx="71.0649" cy="93.9595" rx="56.9852" ry="56.9595" fill="#E46B6B"/>
<path fill-rule="evenodd" clip-rule="evenodd" d="M71.0651 150.153C102.537 150.153 128.05 124.651 128.05 93.1934C128.05 92.3013 128.03 91.4139 127.989 90.5317C106.508 111.451 59.641 123.185 22.9966 123.799C33.116 139.645 50.8629 150.153 71.0651 150.153Z" fill="#CC5454"/>
<path d="M270.057 151H180.195C180.195 151 160.226 96.3117 220.134 105.374V51H270.057L270.057 151Z" fill="#2E90AE"/>
<path d="M287 151H197.138C197.138 151 177.169 96.3117 237.077 105.374V51H287L287 151Z" fill="#40B9DF"/>
<rect x="220.249" y="51" width="66.7505" height="20.6109" fill="#96ECFF" fill-opacity="0.17"/>
<path d="M183.611 104.124L179.976 91.0998C176.098 77.207 163.523 67.5381 149.099 67.3576C134.675 67.1772 121.855 76.5285 117.619 90.3198L113.649 103.249C106.507 126.503 123.706 150.087 148.027 150.391C172.348 150.695 190.15 127.55 183.611 104.124Z" fill="#956318"/>
<ellipse cx="115.722" cy="16.107" rx="16.3636" ry="16.107" fill="#956318"/>
<ellipse cx="181.176" cy="16.107" rx="16.3636" ry="16.107" fill="#956318"/>
<ellipse cx="148.449" cy="48.3209" rx="38.1818" ry="37.5829" fill="#AD7013"/>
<ellipse cx="110.818" cy="124.117" rx="18.8182" ry="26.8826" fill="#AD7013"/>
<ellipse cx="187.411" cy="123.684" rx="18.8182" ry="27.3165" fill="#AD7013"/>
<path d="M400 143.286H250C250 114.341 271.339 114.341 271.339 114.341H282.049C282.049 86.8134 304.239 85.3969 304.239 85.3969H346.325C346.325 85.3969 367.728 85.3969 367.728 114.341H378.438C378.438 114.341 400 114.341 400 143.286Z" fill="#53F2DF"/>
<ellipse cx="285.471" cy="136.214" rx="14.8235" ry="14.7857" fill="#349993"/>
<ellipse cx="364.529" cy="136.214" rx="14.8235" ry="14.7857" fill="#349993"/>
</svg>
