<svg width="382" height="268" viewBox="0 0 382 268" fill="none" xmlns="http://www.w3.org/2000/svg">
<rect x="44.2489" y="145.001" width="15.6371" height="122.999" fill="#C19A4E"/>
<rect x="24.1425" y="127.818" width="15.6371" height="105.57" fill="#C19A4E"/>
<rect x="327.079" y="142.998" width="15.6371" height="122.999" fill="#C19A4E"/>
<rect x="347.308" y="122.169" width="15.6371" height="116.226" fill="#C19A4E"/>
<path d="M382 126.718C382 153.465 296.486 175.146 191 175.146C85.5136 175.146 0 153.465 0 126.718C0 99.9724 85.5136 78.2904 191 78.2904C296.486 78.2904 382 99.9724 382 126.718Z" fill="#A87615"/>
<rect y="119.801" width="382" height="7.08629" fill="#A87615"/>
<path d="M382 119.428C382 146.174 296.486 167.856 191 167.856C85.5136 167.856 0 146.174 0 119.428C0 92.682 85.5136 71 191 71C296.486 71 382 92.682 382 119.428Z" fill="#C19A4E"/>
<ellipse cx="64.9852" cy="75.9595" rx="56.9852" ry="56.9595" fill="#E46B6B"/>
<path fill-rule="evenodd" clip-rule="evenodd" d="M121.903 72.4019C121.807 75.0439 121.614 78.9137 121.362 83.5505C117.317 111.046 93.6172 132.153 64.9854 132.153C46.5399 132.153 30.1413 123.393 19.7263 109.808C20.8758 109.643 22.3968 109.612 24.3233 109.735C60.0288 112.004 117.843 97.5139 121.556 70.3136C121.603 69.9696 121.645 69.6794 121.684 69.4409C121.782 70.4208 121.855 71.408 121.903 72.4019Z" fill="#CC5454"/>
<path d="M255.87 115H166.008C166.008 115 146.039 60.3117 205.947 69.374V15H255.87L255.87 115Z" fill="#2E90AE"/>
<path d="M272.812 115H182.95C182.95 115 162.981 60.3117 222.889 69.374V15H272.813L272.812 115Z" fill="#40B9DF"/>
<rect x="206.062" y="15" width="66.7505" height="20.6109" fill="#96ECFF" fill-opacity="0.17"/>
<path d="M181.611 104.584L177.976 91.5593C174.098 77.6665 161.523 67.9976 147.099 67.8171C132.675 67.6367 119.855 76.988 115.619 90.7792L111.649 103.709C104.507 126.963 121.706 150.546 146.027 150.851C170.348 151.155 188.15 128.009 181.611 104.584Z" fill="#956318"/>
<ellipse cx="113.722" cy="16.5664" rx="16.3636" ry="16.107" fill="#956318"/>
<ellipse cx="179.176" cy="16.5664" rx="16.3636" ry="16.107" fill="#956318"/>
<ellipse cx="146.449" cy="48.7804" rx="38.1818" ry="37.5829" fill="#AD7013"/>
<ellipse cx="108.818" cy="124.577" rx="18.8182" ry="26.8826" fill="#AD7013"/>
<ellipse cx="185.411" cy="124.143" rx="18.8182" ry="27.3165" fill="#AD7013"/>
<path d="M367 133.286H217C217 104.341 238.339 104.341 238.339 104.341H249.049C249.049 76.8134 271.239 75.3969 271.239 75.3969H313.325C313.325 75.3969 334.728 75.3969 334.728 104.341H345.438C345.438 104.341 367 104.341 367 133.286Z" fill="#53F2DF"/>
<ellipse cx="252.471" cy="126.214" rx="14.8235" ry="14.7857" fill="#349993"/>
<ellipse cx="331.529" cy="126.214" rx="14.8235" ry="14.7857" fill="#349993"/>
</svg>
